# xmcd
#
# Track frame offsets: 
#        150
#        16895
#        38598
#        56833
#        76478
#        92778
#        116943
#        138223
#        153175
#        176080
#
# Disc length: 2597 seconds
#
# Revision: 0
# Processed by: cddbd v1.5.2PL0 Copyright (c) Steve Scherf et al.
# Submitted via: ExactAudioCopy v1.0b3
#
DISCID=7b0a230a
DTITLE=Thanh Tuyen, Che Linh - Ngay Em Con Ben Toi
DYEAR=1995
DGENRE=
TTITLE0=Thanh Tuyen - Hoa van no tren duong que huong
TTITLE1=Che Linh - Ngay con em ben toi
TTITLE2=Thanh Tuyen - Sac hoa mau nho
TTITLE3=Che Linh - Lanh tron dem mua
TTITLE4=Thanh Tuyen - Truong cu tinh xua
TTITLE5=Thanh Tuyen - Tinh muon
TTITLE6=Che Linh - Nhung chuyen tinh mong manh
TTITLE7=Thanh Tuyen - Phien gac dem Xuan
TTITLE8=Che Linh - Nua dem ngoai pho
TTITLE9=Thanh Tuyen - Ai noi voi em
EXTD=
EXTT0=
EXTT1=
EXTT2=
EXTT3=
EXTT4=
EXTT5=
EXTT6=
EXTT7=
EXTT8=
EXTT9=
PLAYORDER=
